<mxfile host="app.diagrams.net" modified="2022-03-11T02:38:39.478Z" agent="5.0 (Macintosh; Intel Mac OS X 10_15_6) AppleWebKit/605.1.15 (KHTML, like Gecko) Version/15.4 Safari/605.1.15" etag="yf1SF9AUQlJ4Mg4X48XK" version="17.0.0" type="github">
  <diagram id="AWZYIU5muHIaPF7OCgV0" name="Page-1">
    <mxGraphModel dx="868" dy="719" grid="1" gridSize="10" guides="1" tooltips="1" connect="1" arrows="1" fold="1" page="1" pageScale="1" pageWidth="850" pageHeight="1100" math="0" shadow="0">
      <root>
        <mxCell id="0" />
        <mxCell id="1" parent="0" />
        <mxCell id="1IDwZI0KSUE5VmGasGqD-1" value="DPDK &amp;nbsp;application" style="rounded=0;whiteSpace=wrap;html=1;" parent="1" vertex="1">
          <mxGeometry x="240" y="160" width="130" height="60" as="geometry" />
        </mxCell>
        <mxCell id="1IDwZI0KSUE5VmGasGqD-3" value="" style="shape=cylinder3;whiteSpace=wrap;html=1;boundedLbl=1;backgroundOutline=1;size=15;" parent="1" vertex="1">
          <mxGeometry x="220" y="310" width="60" height="40" as="geometry" />
        </mxCell>
        <mxCell id="1IDwZI0KSUE5VmGasGqD-4" value="" style="shape=cylinder3;whiteSpace=wrap;html=1;boundedLbl=1;backgroundOutline=1;size=15;" parent="1" vertex="1">
          <mxGeometry x="330" y="310" width="60" height="40" as="geometry" />
        </mxCell>
        <mxCell id="1IDwZI0KSUE5VmGasGqD-5" value="where hugetblfs is mounted" style="text;html=1;strokeColor=none;fillColor=none;align=center;verticalAlign=middle;whiteSpace=wrap;rounded=0;" parent="1" vertex="1">
          <mxGeometry x="210" y="360" width="80" height="30" as="geometry" />
        </mxCell>
        <mxCell id="1IDwZI0KSUE5VmGasGqD-6" value="DPDK&amp;nbsp;&lt;br&gt;runtime&lt;br&gt;config" style="text;html=1;strokeColor=none;fillColor=none;align=center;verticalAlign=middle;whiteSpace=wrap;rounded=0;" parent="1" vertex="1">
          <mxGeometry x="360" y="240" width="60" height="30" as="geometry" />
        </mxCell>
        <mxCell id="1IDwZI0KSUE5VmGasGqD-7" value="" style="endArrow=none;html=1;rounded=0;exitX=0.5;exitY=0;exitDx=0;exitDy=0;exitPerimeter=0;entryX=0.25;entryY=1;entryDx=0;entryDy=0;endFill=0;startArrow=classicThin;startFill=1;" parent="1" source="1IDwZI0KSUE5VmGasGqD-3" target="1IDwZI0KSUE5VmGasGqD-1" edge="1">
          <mxGeometry width="50" height="50" relative="1" as="geometry">
            <mxPoint x="410" y="400" as="sourcePoint" />
            <mxPoint x="270" y="230" as="targetPoint" />
          </mxGeometry>
        </mxCell>
        <mxCell id="1IDwZI0KSUE5VmGasGqD-8" value="" style="endArrow=none;html=1;rounded=0;exitX=0.5;exitY=0;exitDx=0;exitDy=0;exitPerimeter=0;entryX=0.75;entryY=1;entryDx=0;entryDy=0;startArrow=classicThin;startFill=1;" parent="1" source="1IDwZI0KSUE5VmGasGqD-4" target="1IDwZI0KSUE5VmGasGqD-1" edge="1">
          <mxGeometry width="50" height="50" relative="1" as="geometry">
            <mxPoint x="260" y="320" as="sourcePoint" />
            <mxPoint x="300" y="220" as="targetPoint" />
          </mxGeometry>
        </mxCell>
        <mxCell id="1IDwZI0KSUE5VmGasGqD-9" value="/var/run/dpdk&lt;br&gt;(고정위치)" style="text;html=1;strokeColor=none;fillColor=none;align=center;verticalAlign=middle;whiteSpace=wrap;rounded=0;" parent="1" vertex="1">
          <mxGeometry x="330" y="360" width="60" height="30" as="geometry" />
        </mxCell>
        <mxCell id="1IDwZI0KSUE5VmGasGqD-11" value="&amp;nbsp;hugepage&lt;br&gt;map" style="text;html=1;strokeColor=none;fillColor=none;align=center;verticalAlign=middle;whiteSpace=wrap;rounded=0;" parent="1" vertex="1">
          <mxGeometry x="200" y="240" width="60" height="30" as="geometry" />
        </mxCell>
        <mxCell id="1IDwZI0KSUE5VmGasGqD-12" value="&lt;div&gt;# cat /proc/mounts | grep hugetlbfs&lt;/div&gt;&lt;div&gt;nodev &lt;b&gt;/hugepages&lt;/b&gt; hugetlbfs rw,relatime,pagesize=2M 0&amp;nbsp;&lt;/div&gt;" style="text;html=1;strokeColor=default;fillColor=none;align=left;verticalAlign=middle;whiteSpace=wrap;rounded=0;fontFamily=Helvetica;dashed=1;" parent="1" vertex="1">
          <mxGeometry x="110" y="450" width="330" height="40" as="geometry" />
        </mxCell>
      </root>
    </mxGraphModel>
  </diagram>
</mxfile>
